<svg width="30" height="30" viewBox="0 0 30 30" fill="none" xmlns="http://www.w3.org/2000/svg">
<path d="M13.75 3.81873C11.6444 4.05404 9.64795 4.87913 7.99054 6.19902C6.33314 7.51891 5.08211 9.27997 4.38142 11.2795C3.68074 13.279 3.55888 15.4358 4.02988 17.5015C4.50088 19.5673 5.54559 21.458 7.04377 22.9562C8.54195 24.4544 10.4327 25.4991 12.4985 25.9701C14.5642 26.4411 16.7209 26.3192 18.7205 25.6185C20.72 24.9179 22.4811 23.6668 23.8009 22.0094C25.1208 20.352 25.9459 18.3556 26.1812 16.25H13.75V3.81873Z" stroke="#325F9B" stroke-width="2" stroke-linecap="round" stroke-linejoin="round"/>
<path d="M25.61 11.25H18.75V4.39001C20.3317 4.95117 21.7683 5.85818 22.9551 7.04494C24.1418 8.23169 25.0488 9.66829 25.61 11.25V11.25Z" stroke="#325F9B" stroke-width="2" stroke-linecap="round" stroke-linejoin="round"/>
</svg>
